<?xml version="1.0"?>
<svg xmlns="http://www.w3.org/2000/svg" width="30" height="30" viewBox="0 0 128 128"><g><path d="M121.693,28.185H105.5V21.646a1.748,1.748,0,0,0-1-1.583l-6.65-3.131c-.009,0-.019-.006-.029-.011a1.937,1.937,0,0,0-.19-.067c-.048-.015-.1-.034-.144-.045s-.1-.015-.156-.022a1.838,1.838,0,0,0-.2-.019c-.011,0-.021,0-.031,0H86.433a1.75,1.75,0,0,0-1.75,1.75v1.842h-4.03V14.843a1.75,1.75,0,0,0-1.75-1.75h-51.3a16.842,16.842,0,0,0,0,33.684h9.571L12.017,90.353H6.307a1.749,1.749,0,0,0-1.75,1.75v21.054a1.749,1.749,0,0,0,1.75,1.75H67.088a1.75,1.75,0,0,0,1.75-1.75V102.63a1.75,1.75,0,0,0-.514-1.239L57.767,90.863a1.749,1.749,0,0,0-1.236-.51H35.2L50.543,63.781h0c3.233-5.6,9.72-4.209,9.987-4.15a1.745,1.745,0,0,0,1.914-.829l6.941-12.024H78.9a1.75,1.75,0,0,0,1.75-1.75V39.512h4.03v1.843a1.75,1.75,0,0,0,1.75,1.75H97.1a1.741,1.741,0,0,0,.688-.141l6.636-2.774a1.746,1.746,0,0,0,1.075-1.614V31.685h16.192a1.75,1.75,0,0,0,0-3.5Zm-107.43,1.75A13.358,13.358,0,0,1,27.605,16.593H38.457V43.277H27.605A13.358,13.358,0,0,1,14.263,29.935Zm20.8,27.5h2.386a1.983,1.983,0,0,1,1.717,2.973L28.721,78.5a1.99,1.99,0,0,1-1.716.99H22.33Zm30.276,45.918v8.051H8.057V93.853H55.808Zm-49.279-13,4.25-7.362h6.7a5.5,5.5,0,0,0,4.747-2.74L42.2,62.161a5.483,5.483,0,0,0-4.748-8.223h-.365l4.134-7.161h15.1L31.16,90.353ZM60.018,56a14.386,14.386,0,0,0-5.235.434l5.578-9.661h4.984ZM77.153,43.277h-35.2V16.593h35.2Zm3.5-7.265V23.857h4.03V36.012Zm7.53-15.747h7.169V39.6H88.183ZM102,37.411l-3.149,1.317V21.273L102,22.756Z"/><path d="M34.317,28.185H28.076a1.75,1.75,0,0,0,0,3.5h6.241a1.75,1.75,0,0,0,0-3.5Z"/><path d="M28.076,24.614h6.241a1.75,1.75,0,0,0,0-3.5H28.076a1.75,1.75,0,0,0,0,3.5Z"/><path d="M34.317,35.255H28.076a1.75,1.75,0,0,0,0,3.5h6.241a1.75,1.75,0,0,0,0-3.5Z"/><path d="M47.6,107.942h6.648a1.75,1.75,0,1,0,0-3.5H47.6a1.75,1.75,0,0,0,0,3.5Z"/></g></svg>
