<?xml version="1.0" encoding="utf-8"?>
<svg height="512px" viewBox="0 0 512 512" width="512px" class="" xmlns="http://www.w3.org/2000/svg">
  <g>
    <path d="M 512 256 C 512 397.387 397.387 512 256 512 C 114.613 512 0 397.387 0 256 C 0 114.613 99.273 210.582 240.66 210.582 C 382.047 210.582 512 114.613 512 256 Z M 512 256" fill="#ffc107" data-original="#FFC107" class="active-path" style="fill: rgb(168, 64, 239);" data-old_color="#ffc107"/>
    <path d="M 256 512 C 114.836 512 0 400.469 0 263.369 C 0 126.268 114.836 14.737 256 14.737 C 397.164 14.737 512 126.268 512 263.369 C 512 400.469 397.164 512 256 512 Z M 256 35.456 C 126.613 35.456 21.332 137.705 21.332 263.369 C 21.332 389.032 126.613 491.282 256 491.282 C 385.387 491.282 490.668 389.032 490.668 263.369 C 490.668 137.705 385.387 35.456 256 35.456 Z M 256 35.456" data-original="#000000" class="" style="opacity: 0;"/>
    <path d="M 256 512.5 C 185.316 512.5 121.127 483.707 74.71 437.29 C 28.293 390.873 -0.5 326.684 -0.5 256 C -0.5 185.316 28.293 121.127 74.71 74.71 C 121.127 28.293 185.316 -0.5 256 -0.5 C 326.684 -0.5 390.873 28.293 437.29 74.71 C 483.707 121.127 512.5 185.316 512.5 256 C 512.5 326.684 483.707 390.873 437.29 437.29 C 390.873 483.707 326.684 512.5 256 512.5 Z M 436.583 436.583 C 482.875 390.291 511.5 326.48 511.5 256 C 511.5 185.52 482.875 121.709 436.583 75.417 C 390.291 29.125 326.48 0.5 256 0.5 C 185.52 0.5 121.709 29.125 75.417 75.417 C 29.125 121.709 0.5 185.52 0.5 256 C 0.5 326.48 29.125 390.291 75.417 436.583 C 121.709 482.875 185.52 511.5 256 511.5 C 326.48 511.5 390.291 482.875 436.583 436.583 Z M 256 20.832 C 320.796 20.832 379.651 47.236 422.208 89.792 C 464.764 132.349 491.168 191.204 491.168 256 C 491.168 320.796 464.764 379.651 422.208 422.208 C 379.651 464.764 320.796 491.168 256 491.168 C 191.204 491.168 132.349 464.764 89.792 422.208 C 47.236 379.651 20.832 320.796 20.832 256 C 20.832 191.204 47.236 132.349 89.792 89.792 C 132.349 47.236 191.204 20.832 256 20.832 Z M 90.5 90.5 C 48.069 132.93 21.832 191.409 21.832 256 C 21.832 320.591 48.069 379.07 90.5 421.5 C 132.93 463.931 191.409 490.168 256 490.168 C 320.591 490.168 379.07 463.931 421.5 421.5 C 463.931 379.07 490.168 320.591 490.168 256 C 490.168 191.409 463.931 132.93 421.5 90.5 C 379.07 48.069 320.591 21.832 256 21.832 C 191.409 21.832 132.93 48.069 90.5 90.5 Z" style="fill: none;"/>
    <path d="M 256 512.5 C 185.316 512.5 121.127 483.707 74.71 437.29 C 28.293 390.873 -0.5 326.684 -0.5 256 C -0.5 185.316 28.293 121.127 74.71 74.71 C 121.127 28.293 185.316 -0.5 256 -0.5 C 326.684 -0.5 390.873 28.293 437.29 74.71 C 483.707 121.127 512.5 185.316 512.5 256 C 512.5 326.684 483.707 390.873 437.29 437.29 C 390.873 483.707 326.684 512.5 256 512.5 Z M 436.583 436.583 C 482.875 390.291 511.5 326.48 511.5 256 C 511.5 185.52 482.875 121.709 436.583 75.417 C 390.291 29.125 326.48 0.5 256 0.5 C 185.52 0.5 121.709 29.125 75.417 75.417 C 29.125 121.709 0.5 185.52 0.5 256 C 0.5 326.48 29.125 390.291 75.417 436.583 C 121.709 482.875 185.52 511.5 256 511.5 C 326.48 511.5 390.291 482.875 436.583 436.583 Z M 256 20.832 C 320.796 20.832 379.651 47.236 422.208 89.792 C 464.764 132.349 491.168 191.204 491.168 256 C 491.168 320.796 464.764 379.651 422.208 422.208 C 379.651 464.764 320.796 491.168 256 491.168 C 191.204 491.168 132.349 464.764 89.792 422.208 C 47.236 379.651 20.832 320.796 20.832 256 C 20.832 191.204 47.236 132.349 89.792 89.792 C 132.349 47.236 191.204 20.832 256 20.832 Z M 90.5 90.5 C 48.069 132.93 21.832 191.409 21.832 256 C 21.832 320.591 48.069 379.07 90.5 421.5 C 132.93 463.931 191.409 490.168 256 490.168 C 320.591 490.168 379.07 463.931 421.5 421.5 C 463.931 379.07 490.168 320.591 490.168 256 C 490.168 191.409 463.931 132.93 421.5 90.5 C 379.07 48.069 320.591 21.832 256 21.832 C 191.409 21.832 132.93 48.069 90.5 90.5 Z" style="fill: none;"/>
  </g>
</svg>