<?xml version="1.0" encoding="iso-8859-1"?>
<!-- Generator: Adobe Illustrator 19.0.0, SVG Export Plug-In . SVG Version: 6.00 Build 0)  -->
<svg version="1.1" id="Capa_1" xmlns="http://www.w3.org/2000/svg" xmlns:xlink="http://www.w3.org/1999/xlink" x="0px" y="0px"
	 viewBox="0 0 380.432 380.432" style="enable-background:new 0 0 380.432 380.432;" xml:space="preserve">
<g>
	<g>
		<path d="M147.6,140.249L147.6,140.249c-7.684-3.961-16.236-5.941-24.88-5.76H46.08c-8.637-0.206-17.188,1.746-24.88,5.68
			c-9.68,5.2-21.2,16.4-21.2,40v76.96c0,28.8,17.2,46.08,46.08,46.08h76.96c28.88,0,46.08-17.2,46.08-46.08v-76.48
			C168.8,156.729,157.28,145.529,147.6,140.249z M153.12,180.569l-0.32,76.96c0,19.92-10.08,30.08-30.08,30.08H46.08
			c-19.92,0-30.08-10.08-30.08-30.08v-76.88c-1.29-10.507,3.725-20.789,12.8-26.24c5.346-2.72,11.284-4.067,17.28-3.92h76.96
			c5.989-0.171,11.927,1.148,17.28,3.84C149.395,159.781,154.41,170.062,153.12,180.569z"/>
	</g>
</g>
<g>
	<g>
		<path d="M288.16,191.85c-48.601,0-88,39.399-88,88c0,48.601,39.399,88,88,88c48.601,0,88-39.399,88-88
			C376.16,231.248,336.761,191.85,288.16,191.85z M288.4,352.089c-0.08,0-0.16,0-0.24,0v-0.24c-39.765,0-72-32.236-72-72
			c0-39.765,32.235-72,72-72c39.764,0,72,32.235,72,72C360.293,319.614,328.165,351.957,288.4,352.089z"/>
	</g>
</g>
<g>
	<g>
		<path d="M379.36,172.89L289.04,16.57c-2.217-3.822-7.112-5.123-10.934-2.906c-1.205,0.699-2.207,1.701-2.906,2.906l-90.24,156.32
			c-2.209,3.826-0.898,8.719,2.928,10.928c1.226,0.708,2.617,1.077,4.032,1.072H372.4c4.418,0.018,8.014-3.55,8.032-7.968
			C380.437,175.506,380.068,174.115,379.36,172.89z M206.08,168.89l76.4-132.32l76.08,132.32H206.08z"/>
	</g>
</g>
<g>
	<g>
		<path d="M94.88,180.249c-0.999-1.332-2.575-2.105-4.24-2.08c-1.167-0.157-2.348,0.16-3.28,0.88
			c-0.587,0.587-1.813,2.213-3.68,4.88c-1.902,2.621-4.103,5.011-6.56,7.12c-2.99,2.463-6.3,4.508-9.84,6.08
			c-2.01,0.864-3.938,1.909-5.76,3.12c-1.131,0.94-1.729,2.375-1.6,3.84c0.003,1.481,0.61,2.896,1.68,3.92
			c0.963,1.062,2.327,1.671,3.76,1.68c6.508-1.843,12.468-5.249,17.36-9.92v46.72c-0.178,2.211,0.479,4.409,1.84,6.16
			c1.268,1.388,3.081,2.149,4.96,2.08c4.64,0,6.96-3.413,6.96-10.24v-58.48C96.609,183.964,96.045,181.935,94.88,180.249z"/>
	</g>
</g>
<g>
	<g>
		<path d="M306.72,148.65c-1.792-1.195-3.932-1.758-6.08-1.6h-26.16c0.746-1.152,1.575-2.248,2.48-3.28
			c3.205-3.526,6.712-6.765,10.48-9.68c5.333-4.16,8.96-7.227,10.88-9.2c2.51-2.343,4.665-5.037,6.4-8
			c2.083-3.449,3.163-7.411,3.12-11.44c0.075-5.47-1.993-10.753-5.76-14.72c-1.77-1.884-3.889-3.406-6.24-4.48
			c-4.21-1.721-8.734-2.539-13.28-2.4c-3.848-0.084-7.676,0.568-11.28,1.92c-2.921,1.109-5.587,2.796-7.84,4.96h0
			c-2.017,1.955-3.622,4.295-4.72,6.88c-1.004,2.299-1.547,4.772-1.6,7.28c-0.089,1.686,0.519,3.334,1.68,4.56
			c1.117,1.128,2.654,1.737,4.24,1.68c1.674,0.109,3.302-0.572,4.4-1.84c1.194-1.567,2.114-3.325,2.72-5.2
			c0.435-1.434,0.997-2.826,1.68-4.16c2.275-3.55,6.267-5.622,10.48-5.44c2.036-0.017,4.045,0.479,5.84,1.44
			c1.756,0.916,3.223,2.301,4.24,4c1.039,1.768,1.566,3.79,1.52,5.84c-0.032,2.107-0.523,4.182-1.44,6.08
			c-1.09,2.234-2.52,4.285-4.24,6.08c-2.115,2.203-4.447,4.186-6.96,5.92c-2.804,2.013-5.477,4.204-8,6.56
			c-3.627,3.36-7.68,7.36-12.16,12c-1.233,1.405-2.233,2.998-2.96,4.72c-0.778,1.518-1.241,3.178-1.36,4.88
			c-0.007,1.883,0.777,3.682,2.16,4.96c1.608,1.471,3.746,2.222,5.92,2.08h37.2c1.852,0.144,3.68-0.494,5.04-1.76
			c1.112-1.127,1.718-2.657,1.68-4.24C308.851,151.334,308.078,149.699,306.72,148.65z"/>
	</g>
</g>
<g>
	<g>
		<path d="M308.88,278.489L308.88,278.489c-1.961-1.944-4.199-3.589-6.64-4.88c2.474-1.989,4.609-4.366,6.32-7.04
			c1.546-2.641,2.321-5.661,2.24-8.72c0.019-2.482-0.5-4.938-1.52-7.2c-1.033-2.283-2.564-4.305-4.48-5.92
			c-2.073-1.746-4.464-3.077-7.04-3.92c-2.896-0.926-5.92-1.385-8.96-1.36c-3.479-0.052-6.942,0.489-10.24,1.6
			c-2.917,0.88-5.634,2.32-8,4.24c-1.87,1.574-3.441,3.471-4.64,5.6c-0.988,1.677-1.538,3.575-1.6,5.52
			c-0.082,1.637,0.527,3.234,1.68,4.4c1.05,1.129,2.54,1.742,4.08,1.68c1.048,0.01,2.085-0.208,3.04-0.64
			c0.798-0.317,1.452-0.914,1.84-1.68l1.92-4.24c0.588-1.317,1.341-2.553,2.24-3.68c0.856-1.029,1.956-1.827,3.2-2.32
			c1.63-0.636,3.371-0.935,5.12-0.88c2.715-0.149,5.365,0.87,7.28,2.8c1.773,1.784,2.753,4.206,2.72,6.72
			c0.231,3.052-1.019,6.028-3.36,8c-2.266,1.815-5.097,2.778-8,2.72h-2.4c-1.949-0.262-3.929,0.163-5.6,1.2
			c-1.191,0.948-1.872,2.398-1.84,3.92c-0.057,1.573,0.623,3.082,1.84,4.08c1.215,0.985,2.76,1.472,4.32,1.36h2.72h3.12
			c3.352-0.203,6.635,1.017,9.04,3.36c2.279,2.537,3.458,5.874,3.28,9.28c0.043,2.482-0.623,4.924-1.92,7.04
			c-1.166,1.919-2.823,3.493-4.8,4.56c-1.869,1.003-3.959,1.525-6.08,1.52c-3.199,0.178-6.309-1.084-8.48-3.44
			c-2.49-3.135-4.412-6.682-5.68-10.48c-0.335-0.852-0.958-1.559-1.76-2c-0.813-0.517-1.756-0.795-2.72-0.8
			c-1.755-0.035-3.452,0.627-4.72,1.84c-1.283,1.228-1.981,2.945-1.92,4.72c0.134,2.009,0.678,3.97,1.6,5.76
			c2.582,5.483,7.076,9.836,12.64,12.24c3.431,1.487,7.141,2.224,10.88,2.16c3.74,0.042,7.456-0.609,10.96-1.92
			c3.169-1.188,6.076-2.981,8.56-5.28c2.365-2.247,4.22-4.975,5.44-8c1.221-2.829,1.847-5.879,1.84-8.96
			C314.37,286.565,312.381,281.896,308.88,278.489z"/>
	</g>
</g>
<g>
</g>
<g>
</g>
<g>
</g>
<g>
</g>
<g>
</g>
<g>
</g>
<g>
</g>
<g>
</g>
<g>
</g>
<g>
</g>
<g>
</g>
<g>
</g>
<g>
</g>
<g>
</g>
<g>
</g>
</svg>
