<?xml version="1.0"?>
<svg xmlns="http://www.w3.org/2000/svg" height="512px" viewBox="0 -96 512 512" width="512px" class=""><g><path d="m501.332031 0h-490.664062c-5.890625 0-10.667969 4.777344-10.667969 10.667969v298.664062c0 5.890625 4.777344 10.667969 10.667969 10.667969h490.664062c5.890625 0 10.667969-4.777344 10.667969-10.667969v-298.664062c0-5.890625-4.777344-10.667969-10.667969-10.667969zm0 0" fill="#2196f3" data-original="#2196F3" class="active-path" style="fill:#FFE529" data-old_color="#2196f3"/><path d="m501.332031 320h-490.664062c-5.890625 0-10.667969-4.777344-10.667969-10.667969v-298.664062c0-5.890625 4.777344-10.667969 10.667969-10.667969h490.664062c5.890625 0 10.667969 4.777344 10.667969 10.667969v298.664062c0 5.890625-4.777344 10.667969-10.667969 10.667969zm-480-21.332031h469.335938v-277.335938h-469.335938zm0 0" data-original="#000000" class=""/></g> </svg>
